# xmcd
#
# Track frame offsets: 
#        182
#        14307
#        30865
#        46797
#        60215
#        74722
#        91912
#        105035
#        119160
#        132067
#
# Disc length: 1977 seconds
#
# Revision: 4
# Processed by: cddbd v1.5.2PL0 Copyright (c) Steve Scherf et al.
# Submitted via: ExactAudioCopy v0.99pb5
#
DISCID=7207b70a
DTITLE=Kenny Rogers - Back Home Again
DYEAR=1991
DGENRE=Country
TTITLE0=If You Want To Find Love
TTITLE1=Bed Of Roses
TTITLE2=Someone Must Feel Like A Fool Tonight
TTITLE3=Two Good Reasons
TTITLE4=Some Prisons Don't Have Walls 
TTITLE5=They Just Don't Make 'Em Like You Anymore 
TTITLE6=When You Were Loving Me 
TTITLE7=Sunshine 
TTITLE8=I'll Be There For You 
TTITLE9=How Do I Break It To My Heart
EXTD=
EXTT0=
EXTT1=
EXTT2=
EXTT3=
EXTT4=
EXTT5=
EXTT6=
EXTT7=
EXTT8=
EXTT9=
PLAYORDER=
